# xmcd
#
# Track frame offsets:
#	150
#	6170
#	36372
#	63672
#	89055
#	118332
#	142372
#	170785
#	192760
#	221205
#	245982
#
# Disc length: 3491 seconds
#
# Revision: 1
# Processed by: cddbd v1.5.1PL0 Copyright (c) Steve Scherf et al.
# Submitted via: audiograbber 1.80
#
DISCID=bc0da10b
DTITLE=Sax Gordon - Live At The Sax Blast
DYEAR=1900
DGENRE=
TTITLE0=The Chaser
TTITLE1=DD Rider
TTITLE2=For Whom The Horn Honks
TTITLE3=Rock On
TTITLE4=Melancholy Serenade
TTITLE5=Banana Oil
TTITLE6=That Little Town Rocks
TTITLE7=Walk With Me
TTITLE8=Tino's Dream
TTITLE9=Have Horn Will Travel
TTITLE10=F L A
EXTD=
EXTT0=
EXTT1=
EXTT2=
EXTT3=
EXTT4=
EXTT5=
EXTT6=
EXTT7=
EXTT8=
EXTT9=
EXTT10=
PLAYORDER=
